Coordinates
version=1
nRows=8
nColumns=36
inDegrees=yes

Units are S.I. units (second, meters, Newtons, ...)
If the header above contains a line with 'inDegrees', this indicates whether rotational values are in degrees (yes) or radians (no).

endheader
time	pelvis_tilt	pelvis_list	pelvis_rotation	pelvis_tx	pelvis_ty	pelvis_tz	hip_flexion_r	hip_adduction_r	hip_rotation_r	knee_angle_r	knee_angle_r_beta	ankle_angle_r	subtalar_angle_r	mtp_angle_r	hip_flexion_l	hip_adduction_l	hip_rotation_l	knee_angle_l	knee_angle_l_beta	ankle_angle_l	subtalar_angle_l	mtp_angle_l	lumbar_extension	lumbar_bending	lumbar_rotation	arm_flex_r	arm_add_r	arm_rot_r	elbow_flex_r	pro_sup_r	arm_flex_l	arm_add_l	arm_rot_l	elbow_flex_l	pro_sup_l
      6.73333330	    -36.62439996	      3.75803014	    -13.81484285	      0.72229724	      0.73601674	      0.13027603	     84.58154194	      8.07722284	    -11.85746889	     82.52139997	      1.44027013	     40.78457029	      8.09147050	     -7.49999987	    105.11842133	     -8.40688252	      9.11501710	     40.35405687	      0.70431116	      7.05133266	     21.15979519	     -7.49999987	    -21.88112322	      9.03868148	     12.20628669	     64.80150057	     -4.68175001	     76.51887172	    115.14855953	    102.29465113	     71.43390863	     -4.38119120	     70.04994948	    121.41884124	    105.64189959
      6.75000000	    -37.29477154	      3.88579177	    -13.94496363	      0.72273797	      0.73497844	      0.13004721	     85.40458934	      8.14903302	    -11.94921698	     82.59260122	      1.44151283	     40.66892700	      7.77469978	     -7.49999987	    105.47638220	     -8.34145535	      9.10305761	     40.49203023	      0.70671925	      7.17818902	     21.67118924	     -7.49999987	    -21.39644395	      9.12175175	     12.62887108	     64.47736456	     -4.88825444	     76.98468638	    115.79331493	    102.75513704	     71.12649141	     -4.07049274	     69.98502713	    121.52111477	    107.58301012
      6.76666670	    -37.66277772	      3.99901349	    -13.97170374	      0.72393834	      0.72857923	      0.12971538	     85.99529260	      8.15553109	    -11.98587942	     82.94106368	      1.44759465	     41.09316332	      7.98359562	     -7.49999987	    105.83421275	     -8.29533697	      9.11052454	     40.81576936	      0.71236956	      7.61594605	     21.81603863	     -7.49999987	    -20.75934523	      9.03437830	     12.56120768	     63.61708198	     -4.42692435	     76.34853049	    116.26449884	    103.29115820	     71.03683014	     -3.88328484	     70.05283817	    122.13853475	    107.83536806
      6.78333330	    -38.12223479	      4.05742696	    -13.87068132	      0.72428814	      0.72786225	      0.12920568	     86.71641243	      8.14863725	    -11.99731758	     83.19804338	      1.45207979	     41.21129160	      7.92430167	     -7.49999987	    106.21711810	     -8.17922541	      8.95147664	     40.97912088	      0.71522058	      7.92310665	     22.08035434	     -7.49999987	    -20.14865552	      9.03380773	     12.48776505	     62.87040710	     -4.49733827	     75.95641791	    116.52300566	    103.85873289	     70.55149143	     -3.62067852	     70.10773098	    122.13210585	    108.11647942
      6.80000000	    -38.34435658	      4.08285667	    -13.81972686	      0.72199076	      0.73269755	      0.12953949	     86.84208203	      8.24374835	    -11.87322588	     82.93474827	      1.44748442	     41.21567124	      7.75508287	     -7.49999987	    106.04995592	     -8.02543533	      8.83262281	     40.74336176	      0.71110581	      8.09012014	     22.11059243	     -7.49999987	    -20.25500986	      9.06418590	     12.46815393	     62.67269945	     -4.53068615	     75.73762792	    116.33600552	    103.86462100	     70.48937495	     -3.88792324	     70.02603779	    121.86863823	    108.10991407
      6.81666670	    -38.50230036	      4.14622924	    -13.74114620	      0.72238622	      0.73774069	      0.12927111	     86.76715584	      8.29028855	    -11.64056936	     82.33421139	      1.43700308	     40.86293544	      7.22813795	     -7.49999987	    105.62452749	     -7.91794816	      8.48317447	     40.35829020	      0.70438504	      8.07387564	     22.40407045	     -7.49999987	    -20.33578708	      9.08124628	     12.24234296	     62.02677582	     -4.60981082	     75.59859269	    115.48463345	    103.64682876	     70.06496760	     -4.11813952	     69.62007859	    121.44237446	    108.17230159
      6.83333330	    -38.59183350	      4.22814204	    -13.84836833	      0.72205688	      0.73733955	      0.12946192	     86.65018500	      8.32400499	    -11.55688604	     81.86662880	      1.42884222	     40.80687354	      7.37220711	     -7.49999987	    105.33832247	     -8.01365504	      8.20481506	     40.25124792	      0.70251680	      8.27489606	     22.91556355	     -7.49999987	    -20.33582949	      9.00490920	     12.33111469	     61.81947342	     -4.55301495	     75.94846553	    115.49674903	    103.73388074	     69.81273976	     -4.04305774	     70.02673665	    121.85249842	    107.87487685
      6.85000000	    -38.74031076	      4.15987649	    -13.71950009	      0.71653290	      0.73946948	      0.13083072	     86.82135898	      8.26822410	    -11.63029039	     81.64946870	      1.42505206	     40.54995938	      7.42383075	     -7.49999987	    105.29798778	     -8.09186179	      8.02190330	     40.21191486	      0.70183031	      8.35433401	     23.11400866	     -7.49999987	    -20.26255851	      8.90559779	     12.37396527	     62.37719851	     -4.45535044	     75.10170980	    115.29149429	    103.72580934	     70.12003291	     -4.25889087	     69.54028499	    121.81195559	    107.84151694
